#!OML:ASF H:\Not Pregnant\Project 1\Capture day 1\Session 1\non-pregnant.ASF
:FULLY-SPECIFIED
:DEGREES
1011
root -4.32239 15.0105 30.9215 -170.823 196.602 -180.672
lowerback -3.47481 4.6832 4.79607
upperback -9.6586 6.2165 -1.65067
thorax -7.52524 2.65829 -4.55774
lowerneck 10.825 -11.0469 -31.512
upperneck 5.31775 -21.1349 33.7093
head 7.3702 -11.5628 15.8861
rclavicle -1.67476e-014 -2.64384e-014
rhumerus -29.9406 19.8927 -105.026
rradius 63.1244
rwrist -22.6195
rhand -12.4934 -18.5749
rfingers 7.12502
rthumb 13.5815 -48.1119
lclavicle -1.67476e-014 -2.64384e-014
lhumerus -61.1383 10.516 69.0424
lradius 60.5996
lwrist 138.167
lhand -7.54625 12.6956
lfingers 7.12502
lthumb 18.3454 41.8505
rfemur 3.73596 7.2731 18.8527
rtibia 41.5726
rfoot 5.24671 25.1549
rtoes -13.211
lfemur -45.3034 3.20676 -20.9482
ltibia 40.9392
lfoot -4.4175 -7.75025
ltoes -28.0188
1012
root -4.33712 15.0006 31.0811 -171.175 195.97 -179.77
lowerback -3.10943 4.3083 3.87133
upperback -9.66723 5.70757 -1.83545
thorax -7.85956 2.45212 -4.27279
lowerneck 10.6692 -11.0124 -31.485
upperneck 5.16993 -21.0049 33.7518
head 7.3078 -11.4851 15.9094
rclavicle 4.33351e-014 3.16068e-014
rhumerus -29.4057 19.9162 -105.281
rradius 65.8587
rwrist -23.0341
rhand -12.7044 -17.8872
rfingers 7.12502
rthumb 13.3781 -47.4377
lclavicle 4.33351e-014 3.16068e-014
lhumerus -60.2161 10.7886 68.5192
lradius 58.1285
lwrist 139.495
lhand -8.06796 8.20663
lfingers 7.12502
lthumb 17.8434 37.408
rfemur 1.91158 6.04931 17.7869
rtibia 45.4703
rfoot 7.36302 24.482
rtoes -13.7131
lfemur -44.8794 3.16059 -22.1967
ltibia 41.2826
lfoot -5.1411 -8.73212
ltoes -28.7758
1013
root -4.35015 14.9968 31.236 -171.551 195.373 -179.166
lowerback -2.57119 3.98217 3.26537
upperback -9.62346 5.27121 -1.96008
thorax -8.20224 2.26383 -4.10453
lowerneck 10.5148 -10.9925 -31.4808
upperneck 4.95772 -20.9019 33.8965
head 7.25693 -11.4245 15.978
rclavicle 4.51738e-014 3.02153e-014
rhumerus -28.9308 19.937 -105.509
rradius 68.6129
rwrist -23.5032
rhand -12.9747 -17.2417
rfingers 7.12502
rthumb 13.1175 -46.8091
lclavicle 4.51738e-014 3.02153e-014
lhumerus -59.1282 10.9764 68.139
lradius 55.9252
lwrist 139.083
lhand -8.21678 3.19417
lfingers 7.12502
lthumb 17.7002 32.4085
rfemur 0.183789 4.9131 17.049
rtibia 49.2389
rfoot 8.86568 23.7336
rtoes -14.3751
lfemur -44.285 3.35145 -23.1896
ltibia 41.5254
lfoot -5.85603 -9.78952
ltoes -29.1996
1014
root -4.36056 14.9998 31.3856 -171.977 194.868 -178.815
lowerback -1.85429 3.70713 2.92634
upperback -9.5275 4.91214 -2.02519
thorax -8.56652 2.09775 -4.02699
lowerneck 10.3771 -10.9781 -31.5053
upperneck 4.68573 -20.8149 34.1259
head 7.20983 -11.3767 16.0893
rclavicle 4.37326e-015 1.37161e-014
rhumerus -28.5 20.0021 -105.701
rradius 71.3847
rwrist -23.9956
rhand -13.204 -16.733
rfingers 7.12502
rthumb 12.8965 -46.3145
lclavicle 4.37326e-015 1.37161e-014
lhumerus -57.9076 11.1288 67.8868
lradius 54.0817
lwrist 136.465
lhand -8.51344 -1.93454
lfingers 7.12502
lthumb 17.4148 27.3054
rfemur -1.44154 3.92039 16.6006
rtibia 52.8757
rfoot 9.56572 22.9095
rtoes -15.5993
lfemur -43.5197 3.73543 -23.9313
ltibia 41.695
lfoot -6.54605 -10.8
ltoes -29.3734
1015
root -4.36762 15.0093 31.5298 -172.457 194.49 -178.644
lowerback -0.982268 3.47826 2.7741
upperback -9.38848 4.62374 -2.04284
thorax -8.95878 1.95477 -4.00838
lowerneck 10.2464 -10.9657 -31.5444
upperneck 4.3794 -20.7339 34.404
head 7.16428 -11.3349 16.2259
rclavicle 8.07563e-015 -1.68967e-014
rhumerus -28.0872 20.1772 -105.862
rradius 74.1427
rwrist -24.5291
rhand -13.4283 -16.3671
rfingers 7.12502
rthumb 12.6803 -45.9622
lclavicle 8.07563e-015 -1.68967e-014
lhumerus -56.6106 11.2462 67.7865
lradius 52.6194
lwrist 131.39
lhand -9.35326 -6.65091
lfingers 7.12502
lthumb 16.6064 22.6586
rfemur -3.0194 3.10879 16.3682
rtibia 56.4113
rfoot 9.52497 21.9022
rtoes -17.2712
lfemur -42.598 4.20022 -24.4437
ltibia 41.8015
lfoot -7.20806 -11.6384
ltoes -29.3826
